name 900006_16rea_lsw
datacolumns 54
datarows 8
range 0.7879166645000008 0.8619999976000011
cursor 1.0 1.0 0.0
keys m_key
wrap
enforce_loops no
enforce_constraints no
calc_derivatives 0.010583
event_color 1.000000 0.000000 1.000000
endheader

time	calcn_r_tx	calcn_r_ty	calcn_r_tz	calcn_r_r1	calcn_r_r2	calcn_r_r3	calcn_l_tx	calcn_l_ty	calcn_l_tz	calcn_l_r1	calcn_l_r2	calcn_l_r3	pelvis_tz	pelvis_tx	pelvis_ty	pelvis_tilt	pelvis_list	pelvis_rotation	hip_flexion_r	hip_adduction_r	hip_rotation_r	knee_angle_r	ankle_angle_r	subtalar_angle_r	mtp_angle_r	hip_flexion_l	hip_adduction_l	hip_rotation_l	knee_angle_l	ankle_angle_l	subtalar_angle_l	mtp_angle_l	lumbar_extension	lumbar_bending	lumbar_rotation	ground_force_px	ground_force_py	ground_force_pz	ground_force_vx	ground_force_vy	ground_force_vz	ground_force_px	ground_force_py	ground_force_pz	ground_force_vx	ground_force_vy	ground_force_vz	ground_torque_x	ground_torque_y	ground_torque_z	ground_torque_x	ground_torque_y	ground_torque_z	
      0.7879166645000008	      1.9441431508076872	      0.0399187391269291	     -0.1959582905287806	      2.4151522769783584	      4.7122398375776324	     -0.3627484210952583	      1.5402213979310506	      0.1665177957089155	     -0.2798164532248053	     -1.2248261094684436	      9.7045820507120339	    -55.3423944914786220	     -0.2587928665243556	      1.9435331336159862	      0.8286934998142197	      2.6486318890504057	     -0.8972156954467221	      3.1103444270982696	     14.5521538110456380	      3.5660176775722183	      0.3667785898193005	    -15.9632443585966170	     -1.4156288980080494	      0.0000000000000000	      0.0000000000000000	     -9.0878331284676079	      1.4453023828731872	     -4.0636687718573032	    -36.4448616000431970	    -12.6429785113680850	      0.0000000000000000	      0.0000000000000000	     -6.2410127489377132	      4.9303173631090740	     -3.5289757654498488	      1.9892354474690339	      0.0000000000000000	     -0.2023209702236985	    -37.4545471106239350	    358.9411957371537500	    -11.1956383702034850	      1.6289945439077747	      0.0000000000000000	     -0.2769640122626096	      1.2603437716894839	     10.2986922888902350	     -0.7645104165645412	      0.0000000000000000	     -0.5740974687155819	      0.0000000000000000	      0.0000000000000000	     -0.0612684446484447	      0.0000000000000000	
      0.7984999978000008	      1.9443343023143311	      0.0401285857687540	     -0.1973402461037019	      2.5782827772714052	      4.5324756106354682	     -0.7335915730451520	      1.5542416985571577	      0.1726960244441358	     -0.2816209194309345	     -0.8196303234520287	     10.1227953734538280	    -58.2630678059219280	     -0.2584722529996785	      1.9525150161787761	      0.8302184384719065	      2.6292587457522192	     -0.7434963403746787	      3.1788649010809733	     13.7510648210896880	      3.5367318736019175	      0.2062005316534456	    -15.7608526699933500	     -1.1599008516151144	      0.0000000000000000	      0.0000000000000000	     -7.8210546375781762	      1.3293168591231483	     -4.0452977557590524	    -38.4126445974639740	    -14.8534486153659430	      0.0000000000000000	      0.0000000000000000	     -6.3741233552075345	      4.7906026797886501	     -3.8360207604311398	      1.9903957597618767	      0.0000000000000000	     -0.2029892654085150	    -34.6224919707248940	    376.1096249533233000	    -10.1531438826737620	      1.6293558896399540	      0.0000000000000000	     -0.2772425752211822	     -0.4143841489911628	      1.1999034166728912	      0.0014885087342585	      0.0000000000000000	     -0.5155391824355209	      0.0000000000000000	      0.0000000000000000	     -0.0197925468408840	      0.0000000000000000	
      0.8090833311000009	      1.9445048903763462	      0.0402515557038063	     -0.1986945624295335	      2.7354420847351544	      4.3662096017341252	     -1.0635689485987434	      1.5685790965849349	      0.1778445658358441	     -0.2833599766551227	     -0.4523023207462747	     10.4550228926044540	    -60.2831409279324150	     -0.2581051932968385	      1.9613252530165668	      0.8315074044360098	      2.5873501651557436	     -0.6028130680806854	      3.2516816781527322	     12.9827067423530810	      3.5250697242244482	      0.0543805031360019	    -15.5489593587740590	     -0.8817557174056286	      0.0000000000000000	      0.0000000000000000	     -6.4566246913838192	      1.1757200793428033	     -4.1065015325080987	    -40.4236867201198960	    -16.1829460475180440	      0.0000000000000000	      0.0000000000000000	     -6.4822111669329630	      4.6357590394896846	     -4.1249836906937301	      1.9923541868432764	      0.0000000000000000	     -0.2037641549820063	    -32.5385718877357060	    390.0668968006713700	     -9.5335689086169388	      1.6297883713201582	      0.0000000000000000	     -0.2771825880135426	      0.0527138717748463	     -0.3490470261415969	      0.0151505428768698	      0.0000000000000000	     -0.4359921604596064	      0.0000000000000000	      0.0000000000000000	      0.0045320099962630	      0.0000000000000000	
      0.8196666644000009	      1.9446415938972150	      0.0403192930067601	     -0.1999328465758767	      2.8772272266326580	      4.2375201938947269	     -1.3482024628260842	      1.5830848463572049	      0.1819803314164586	     -0.2850552418204339	     -0.1590096621096748	     10.6774920776059310	    -61.3330969331503650	     -0.2577045587643392	      1.9699914510784180	      0.8325948934084209	      2.5283796603205766	     -0.4840698223366990	      3.3267813429373057	     12.2429728138567060	      3.5389997576942624	     -0.0602311013305675	    -15.3385863993515720	     -0.5668313132200600	      0.0000000000000000	      0.0000000000000000	     -5.0112682839796872	      0.9814226099834299	     -4.2255518936792598	    -42.4662170417504540	    -16.5670813463971600	      0.0000000000000000	      0.0000000000000000	     -6.5644922094045359	      4.4799529339622666	     -4.3896051945332717	      1.9952344776030639	      0.0000000000000000	     -0.2046826205667716	    -31.5683347663097570	    399.1423822613591000	     -9.6114076757280618	      1.6304894307535349	      0.0000000000000000	     -0.2769323440562109	      0.0339379383679049	      0.0716913348377241	     -0.0101468584628932	      0.0000000000000000	     -0.3562675019353530	      0.0000000000000000	      0.0000000000000000	      0.0000908135519001	      0.0000000000000000	
      0.8302499977000010	      1.9447263558375520	      0.0403467172495304	     -0.2010079098684626	      2.9987818007049092	      4.1566693501146954	     -1.5862232145831268	      1.5977529724820214	      0.1851216892925403	     -0.2867230117225045	      0.0412278603352039	     10.7836867135935370	    -61.4440313802381160	     -0.2572893188569896	      1.9785194963735231	      0.8335163058165394	      2.4593863153076874	     -0.3856840717341593	      3.4025751226302403	     11.5232082708529850	      3.5746176382172759	     -0.1228191289200245	    -15.1330886683893180	     -0.2092676070909247	      0.0000000000000000	      0.0000000000000000	     -3.5021848322172668	      0.7573839750600384	     -4.3784662693244991	    -44.5099199945674750	    -16.0615768766893510	      0.0000000000000000	      0.0000000000000000	     -6.6300412122674466	      4.3268594781079432	     -4.6273144388482894	      1.9988321692168611	      0.0000000000000000	     -0.2059274247795649	    -31.5706553490640400	    403.4743127906188500	    -10.4023321644780800	      1.6314890421139321	      0.0000000000000000	     -0.2764994083793999	     -0.0135980666696053	      0.0257961997325617	      0.0005727525732796	      0.0000000000000000	     -0.2687284617576396	      0.0000000000000000	      0.0000000000000000	     -0.0005453862866398	      0.0000000000000000	
      0.8408333310000010	      1.9447406170610206	      0.0403304775829097	     -0.2019117537287611	      3.0992981983562760	      4.1238646626782494	     -1.7816520768294155	      1.6127048535924029	      0.1872663840628416	     -0.2883862584509118	      0.1466734719639406	     10.7787097671026930	    -60.7346350401828940	     -0.2568777678148594	      1.9869033311171915	      0.8342985318971384	      2.3866961910110152	     -0.2972500683325614	      3.4754944780542143	     10.8133784526128560	      3.6192268250908106	     -0.1272829911693075	    -14.9297633978959490	      0.1867642192924403	      0.0000000000000000	      0.0000000000000000	     -1.9465703323848700	      0.5268192308385012	     -4.5416164390204043	    -46.5058326385062910	    -14.8266738461456490	      0.0000000000000000	      0.0000000000000000	     -6.6918060478088117	      4.1701243329024269	     -4.8338615712033555	      2.0027554382395065	      0.0000000000000000	     -0.2076284802186879	    -32.0121784695693140	    405.2955296778151800	    -11.5255779776802290	      1.6327268406263105	      0.0000000000000000	     -0.2759225681123289	      0.0002332871302945	     -0.0129151854106146	      0.0008032024396813	      0.0000000000000000	     -0.1451451962925437	      0.0000000000000000	      0.0000000000000000	      0.0001267143167907	      0.0000000000000000	
      0.8514166643000011	      1.9446785175792782	      0.0402604915547398	     -0.2026602958779324	      3.1799440641894203	      4.1313118843265082	     -1.9404701414829790	      1.6281401358167673	      0.1883848259041190	     -0.2900806735149461	      0.1665517179929687	     10.6716274725860300	    -59.3772832342471590	     -0.2564875140666773	      1.9951305899471685	      0.8349662764128752	      2.3169094409004836	     -0.2046612660824553	      3.5380373843231654	     10.1026326670451710	      3.6562695760278348	     -0.0727834305717671	    -14.7214005679204850	      0.6105580822461560	      0.0000000000000000	      0.0000000000000000	     -0.3638000350418376	      0.3202541005343453	     -4.6933187196955393	    -48.3901851534641380	    -13.0881216383717710	      0.0000000000000000	      0.0000000000000000	     -6.7658617923631477	      4.0001113320906558	     -4.9991726607926692	      2.0066163790713691	      0.0000000000000000	     -0.2096730630075583	    -32.2078619823499110	    407.7588716834802100	    -12.1364965745207150	      1.6341731072541206	      0.0000000000000000	     -0.2753204734016773	      0.0012857240811221	      0.0009286449702002	     -0.0002721829042938	      0.0000000000000000	      0.0129367948111485	      0.0000000000000000	      0.0000000000000000	      0.0000199775409738	      0.0000000000000000	
      0.8619999976000011	      1.9445585183625007	      0.0401302625619652	     -0.2032681527906838	      3.2411231790709367	      4.1670028498907596	     -2.0655338771434577	      1.6442802030973278	      0.1884205331294724	     -0.2918334648992336	      0.1138077520742438	     10.4737061693511250	    -57.5495387639057720	     -0.2561384405934318	      2.0031846860666231	      0.8355513525014272	      2.2590802819470084	     -0.0949857449862524	      3.5821755366418473	      9.3783861287603205	      3.6689670969306012	      0.0369869502230824	    -14.4980731504275210	      1.0510586915793616	      0.0000000000000000	      0.0000000000000000	      1.2234460602655084	      0.1681927491057724	     -4.8170838195800192	    -50.0932984254301910	    -11.0809700701372410	      0.0000000000000000	      0.0000000000000000	     -6.8724225104857952	      3.8096555260952325	     -5.1123880422668346	      2.0101112738114009	      0.0000000000000000	     -0.2117884918592888	    -31.6805543283038630	    412.9757253466718200	    -11.5583324548553460	      1.6357095327147118	      0.0000000000000000	     -0.2747785341569289	     -0.0003638943012932	      0.0010463747153711	     -0.0000081295344043	      0.0000000000000000	      0.1741744087240926	      0.0000000000000000	      0.0000000000000000	     -0.0000179611777213	      0.0000000000000000	
